<svg xmlns="http://www.w3.org/2000/svg" viewBox="0 0 24 24" fill="none">
  <g>
    <path d="M12 2c-3.5 0-6.5 2.7-6.5 6.1 0 1.2.4 2.3 1.1 3.2-.1.4-.2.8-.2 1.2 0 1.2.5 2.3 1.3 3.1-.1.3-.2.7-.2 1.1 0 2.2 2.2 4.3 4.5 4.3s4.5-2.1 4.5-4.3c0-.4-.1-.8-.2-1.1.8-.8 1.3-1.9 1.3-3.1 0-.4-.1-.8-.2-1.2.7-.9 1.1-2 1.1-3.2C18.5 4.7 15.5 2 12 2z" fill="#facc15" stroke="#eab308" stroke-width="1.2"/>
    <ellipse cx="9.5" cy="9.5" rx="1.2" ry="1.7" fill="#fff"/>
    <ellipse cx="14.5" cy="9.5" rx="1.2" ry="1.7" fill="#fff"/>
    <ellipse cx="9.5" cy="9.5" rx=".5" ry=".7" fill="#222"/>
    <ellipse cx="14.5" cy="9.5" rx=".5" ry=".7" fill="#222"/>
    <path d="M10.5 14c.5.5 2.5.5 3 0" stroke="#222" stroke-width=".7" stroke-linecap="round"/>
  </g>
</svg>
